<svg xmlns="http://www.w3.org/2000/svg" xmlns:svg="http://www.w3.org/2000/svg" id="Calque_1" width="1564.332" height="813.999" x="0" y="0" version="1.1" viewBox="0 0 1564.332 813.999" xml:space="preserve"><metadata id="metadata107"/><style id="style2" type="text/css">.st0{fill:#004d9d}.st1{fill:#e30613}.st2{fill:none}</style><g id="g84" transform="matrix(11.368696,0,0,11.368696,-261.48001,-321.7341)"><path id="path4" d="m 24,84.8 c -0.6,-0.6 -1,-1.5 -1,-2.6 0,-1.2 0.3,-2.1 0.9,-2.7 0.6,-0.6 1.5,-1 2.7,-1 0.8,0 1.5,0.1 2.1,0.3 v 1.3 c -0.6,-0.3 -1.3,-0.4 -2,-0.4 -0.8,0 -1.4,0.2 -1.7,0.6 -0.4,0.4 -0.5,1 -0.5,1.8 0,0.8 0.2,1.3 0.6,1.7 0.4,0.4 1,0.6 1.7,0.6 0.7,0 1.4,-0.1 2,-0.4 v 1.3 c -0.7,0.2 -1.4,0.3 -2.1,0.3 -1.2,0.1 -2.1,-0.2 -2.7,-0.8 z" class="st0" style="fill:#004d9d"/><path id="path6" d="m 29.9,82.2 c 0,-1.3 0.3,-2.2 0.9,-2.8 0.6,-0.6 1.4,-0.9 2.6,-0.9 1.2,0 2,0.3 2.6,0.9 0.6,0.6 0.9,1.5 0.9,2.8 0,2.4 -1.2,3.6 -3.5,3.6 -2.4,-0.1 -3.5,-1.2 -3.5,-3.6 z m 4.9,1.7 c 0.3,-0.4 0.5,-1 0.5,-1.7 0,-0.9 -0.2,-1.5 -0.5,-1.8 -0.3,-0.4 -0.8,-0.5 -1.5,-0.5 -0.7,0 -1.2,0.2 -1.5,0.5 -0.3,0.4 -0.5,1 -0.5,1.8 0,0.8 0.2,1.4 0.5,1.7 0.3,0.4 0.8,0.6 1.5,0.6 0.7,0 1.2,-0.2 1.5,-0.6 z" class="st0" style="fill:#004d9d"/><path id="path8" d="m 38.2,78.7 h 1.5 l 2.1,4.2 2.1,-4.2 h 1.5 v 7 h -1.5 v -4.5 l -1.7,3.3 h -0.9 l -1.7,-3.3 v 4.5 h -1.5 v -7 z" class="st0" style="fill:#004d9d"/><path id="path10" d="m 47.3,78.7 h 1.5 l 2.1,4.2 2.1,-4.2 h 1.5 v 7 H 53 v -4.5 l -1.7,3.3 h -0.9 l -1.7,-3.3 v 4.5 h -1.5 v -7 z" class="st0" style="fill:#004d9d"/><path id="path12" d="M 56.5,78.7 H 58 v 7 h -1.5 z" class="st0" style="fill:#004d9d"/><path id="path14" d="m 59.9,85.4 v -1.3 c 0.3,0.1 0.7,0.2 1.1,0.3 0.4,0.1 0.7,0.1 1.1,0.1 0.6,0 0.9,-0.1 1.2,-0.2 0.3,-0.1 0.3,-0.3 0.3,-0.6 0,-0.2 -0.1,-0.4 -0.2,-0.5 -0.1,-0.1 -0.3,-0.2 -0.5,-0.3 -0.2,-0.1 -0.6,-0.2 -1.1,-0.3 -0.7,-0.2 -1.3,-0.5 -1.6,-0.8 -0.3,-0.3 -0.5,-0.7 -0.5,-1.3 0,-0.6 0.2,-1.1 0.7,-1.5 0.5,-0.4 1.2,-0.5 2.1,-0.5 0.4,0 0.8,0 1.2,0.1 0.4,0.1 0.7,0.1 0.9,0.2 v 1.3 c -0.6,-0.2 -1.2,-0.3 -1.9,-0.3 -0.5,0 -0.9,0.1 -1.1,0.2 -0.2,0.1 -0.4,0.3 -0.4,0.6 0,0.2 0,0.3 0.1,0.4 0.1,0.1 0.2,0.2 0.5,0.3 0.2,0.1 0.6,0.2 1,0.3 0.8,0.2 1.4,0.5 1.7,0.8 0.3,0.3 0.5,0.8 0.5,1.3 0,0.6 -0.2,1.1 -0.7,1.5 -0.5,0.4 -1.2,0.5 -2.2,0.5 -0.9,0 -1.6,-0.1 -2.2,-0.3 z" class="st0" style="fill:#004d9d"/><path id="path16" d="m 66.4,85.4 v -1.3 c 0.3,0.1 0.7,0.2 1.1,0.3 0.4,0.1 0.7,0.1 1.1,0.1 0.6,0 0.9,-0.1 1.2,-0.2 0.3,-0.1 0.3,-0.3 0.3,-0.6 0,-0.2 -0.1,-0.4 -0.2,-0.5 -0.1,-0.1 -0.3,-0.2 -0.5,-0.3 -0.2,-0.1 -0.6,-0.2 -1.1,-0.3 -0.7,-0.2 -1.3,-0.5 -1.6,-0.8 -0.3,-0.3 -0.5,-0.7 -0.5,-1.3 0,-0.6 0.2,-1.1 0.7,-1.5 0.5,-0.4 1.2,-0.5 2.1,-0.5 0.4,0 0.8,0 1.2,0.1 0.4,0.1 0.7,0.1 0.9,0.2 v 1.3 c -0.6,-0.2 -1.2,-0.3 -1.9,-0.3 -0.5,0 -0.9,0.1 -1.1,0.2 -0.2,0.1 -0.4,0.3 -0.4,0.6 0,0.2 0,0.3 0.1,0.4 0.1,0.1 0.2,0.2 0.5,0.3 0.2,0.1 0.6,0.2 1,0.3 0.8,0.2 1.4,0.5 1.7,0.8 0.3,0.3 0.5,0.8 0.5,1.3 0,0.6 -0.2,1.1 -0.7,1.5 -0.5,0.4 -1.2,0.5 -2.2,0.5 -0.9,0 -1.7,-0.1 -2.2,-0.3 z" class="st0" style="fill:#004d9d"/><path id="path18" d="m 73.3,78.7 h 1.5 v 7 h -1.5 z" class="st0" style="fill:#004d9d"/><path id="path20" d="m 76.6,82.2 c 0,-1.3 0.3,-2.2 0.9,-2.8 0.6,-0.6 1.4,-0.9 2.6,-0.9 1.2,0 2,0.3 2.6,0.9 0.6,0.6 0.9,1.5 0.9,2.8 0,2.4 -1.2,3.6 -3.5,3.6 -2.4,-0.1 -3.5,-1.2 -3.5,-3.6 z m 4.9,1.7 c 0.3,-0.4 0.5,-1 0.5,-1.7 0,-0.9 -0.2,-1.5 -0.5,-1.8 -0.3,-0.4 -0.8,-0.5 -1.5,-0.5 -0.7,0 -1.2,0.2 -1.5,0.5 -0.3,0.4 -0.5,1 -0.5,1.8 0,0.8 0.2,1.4 0.5,1.7 0.3,0.4 0.8,0.6 1.5,0.6 0.7,0 1.2,-0.2 1.5,-0.6 z" class="st0" style="fill:#004d9d"/><path id="path22" d="m 85.3,78.7 h 1.3 l 3.4,4.6 v -4.6 h 1.5 v 7 H 90.2 L 86.7,81 v 4.6 h -1.5 v -6.9 z" class="st0" style="fill:#004d9d"/><path id="path24" d="m 98.1,78.7 h 1.3 l 3.4,4.6 v -4.6 h 1.5 v 7 H 103 L 99.6,81 v 4.6 h -1.5 z" class="st0" style="fill:#004d9d"/><path id="path26" d="m 108.7,78.7 h 1.6 l 2.7,7 h -1.5 L 110.8,84 h -2.6 l -0.7,1.7 H 106 Z m 1.9,4.1 -1.1,-2.8 -1.1,2.8 z" class="st0" style="fill:#004d9d"/><path id="path28" d="M 115.2,79.8 H 113 v -1.1 h 5.8 v 1.1 h -2.2 v 5.8 h -1.5 v -5.8 z" class="st0" style="fill:#004d9d"/><path id="path30" d="m 120.4,78.7 h 1.5 v 7 h -1.5 z" class="st0" style="fill:#004d9d"/><path id="path32" d="m 123.7,82.2 c 0,-1.3 0.3,-2.2 0.9,-2.8 0.6,-0.6 1.4,-0.9 2.6,-0.9 1.2,0 2,0.3 2.6,0.9 0.6,0.6 0.9,1.5 0.9,2.8 0,2.4 -1.2,3.6 -3.5,3.6 -2.4,-0.1 -3.5,-1.2 -3.5,-3.6 z m 4.9,1.7 c 0.3,-0.4 0.5,-1 0.5,-1.7 0,-0.9 -0.2,-1.5 -0.5,-1.8 -0.3,-0.4 -0.8,-0.5 -1.5,-0.5 -0.7,0 -1.2,0.2 -1.5,0.5 -0.3,0.4 -0.5,1 -0.5,1.8 0,0.8 0.2,1.4 0.5,1.7 0.3,0.3 0.8,0.6 1.5,0.6 0.7,0 1.2,-0.2 1.5,-0.6 z" class="st0" style="fill:#004d9d"/><path id="path34" d="m 132.4,78.7 h 1.3 l 3.4,4.6 v -4.6 h 1.5 v 7 h -1.3 l -3.4,-4.6 v 4.6 h -1.5 z" class="st0" style="fill:#004d9d"/><path id="path36" d="m 143,78.7 h 1.6 l 2.7,7 h -1.5 L 145.1,84 h -2.6 l -0.7,1.7 h -1.6 z m 1.9,4.1 -1.1,-2.8 -1.1,2.8 z" class="st0" style="fill:#004d9d"/><path id="path38" d="m 149.1,78.7 h 1.5 v 5.8 h 3.5 v 1.1 h -5 z" class="st0" style="fill:#004d9d"/><path id="path40" d="m 155.5,78.7 h 5.1 v 1.1 H 157 v 1.8 h 3.2 v 1.1 H 157 v 1.8 h 3.6 v 1.1 h -5.1 z" class="st0" style="fill:#004d9d"/><path id="path42" d="m 23.2,91 h 1.5 v 7 h -1.5 z" class="st0" style="fill:#004d9d"/><path id="path44" d="m 26.2,91 h 1.3 l 3.4,4.6 V 91 h 1.5 v 7 H 31.1 L 27.7,93.4 V 98 h -1.5 z" class="st0" style="fill:#004d9d"/><path id="path46" d="m 33.8,91 h 5 v 1.1 h -3.5 v 1.8 h 3.1 V 95 h -3.1 v 3 h -1.5 z" class="st0" style="fill:#004d9d"/><path id="path48" d="m 39,94.5 c 0,-1.3 0.3,-2.2 0.9,-2.8 0.6,-0.6 1.4,-0.9 2.6,-0.9 1.2,0 2,0.3 2.6,0.9 0.6,0.6 0.9,1.5 0.9,2.8 0,2.4 -1.2,3.6 -3.5,3.6 -2.3,0 -3.5,-1.2 -3.5,-3.6 z m 5,1.8 c 0.3,-0.4 0.5,-1 0.5,-1.7 0,-0.9 -0.2,-1.5 -0.5,-1.8 -0.3,-0.4 -0.8,-0.5 -1.5,-0.5 -0.7,0 -1.2,0.2 -1.5,0.5 -0.3,0.4 -0.5,1 -0.5,1.8 0,0.8 0.2,1.4 0.5,1.7 0.3,0.4 0.8,0.6 1.5,0.6 0.7,0 1.1,-0.2 1.5,-0.6 z" class="st0" style="fill:#004d9d"/><path id="path50" d="m 47.2,91 h 3.4 c 0.8,0 1.4,0.2 1.8,0.6 0.4,0.4 0.6,1 0.6,1.7 0,0.5 -0.1,0.9 -0.4,1.2 -0.2,0.3 -0.6,0.6 -1,0.7 0.1,0.1 0.2,0.2 0.3,0.3 0.1,0.1 0.1,0.3 0.2,0.4 L 53,97.8 H 51.5 L 50.7,95.9 C 50.6,95.7 50.5,95.6 50.5,95.6 50.4,95.5 50.3,95.5 50.1,95.5 H 48.9 V 98 h -1.5 v -7 z m 3,3.5 c 0.4,0 0.7,-0.1 0.9,-0.3 0.2,-0.2 0.3,-0.5 0.3,-0.8 0,-0.3 -0.1,-0.7 -0.3,-0.9 -0.2,-0.2 -0.5,-0.3 -0.9,-0.3 h -1.6 v 2.2 h 1.6 z" class="st0" style="fill:#004d9d"/><path id="path52" d="m 54.2,91 h 1.5 l 2.1,4.2 2.1,-4.2 h 1.5 v 7 h -1.5 v -4.5 l -1.7,3.3 H 57.3 L 55.6,93.5 V 98 h -1.5 v -7 z" class="st0" style="fill:#004d9d"/><path id="path54" d="m 65.1,91 h 1.6 l 2.7,7 H 67.9 L 67.2,96.3 H 64.6 L 63.9,98 h -1.6 z m 1.9,4.2 -1.1,-2.8 -1.1,2.8 z" class="st0" style="fill:#004d9d"/><path id="path56" d="M 71,92.2 H 68.8 V 91 h 5.8 v 1.1 H 72.4 V 98 H 71 Z" class="st0" style="fill:#004d9d"/><path id="path58" d="m 75.7,91 h 1.5 v 7 h -1.5 z" class="st0" style="fill:#004d9d"/><path id="path60" d="m 81.7,99.4 c -0.3,-0.3 -0.4,-0.8 -0.4,-1.3 -1.8,-0.2 -2.7,-1.4 -2.7,-3.5 0,-1.3 0.3,-2.2 0.9,-2.8 0.6,-0.6 1.4,-0.9 2.6,-0.9 1.2,0 2,0.3 2.6,0.9 0.6,0.6 0.9,1.5 0.9,2.8 0,2.2 -1,3.4 -2.9,3.5 0,0.3 0.1,0.5 0.2,0.6 0.1,0.1 0.3,0.2 0.6,0.2 0.3,0 0.5,0 0.8,-0.1 v 1 c -0.1,0 -0.3,0.1 -0.5,0.1 -0.2,0 -0.4,0 -0.6,0 -0.8,-0.1 -1.3,-0.2 -1.5,-0.5 z m 1.7,-3.1 c 0.3,-0.4 0.5,-1 0.5,-1.7 0,-0.9 -0.2,-1.5 -0.5,-1.8 -0.3,-0.4 -0.8,-0.5 -1.5,-0.5 -0.7,0 -1.2,0.2 -1.5,0.5 -0.3,0.4 -0.5,1 -0.5,1.8 0,0.8 0.2,1.4 0.5,1.7 0.3,0.4 0.8,0.6 1.5,0.6 0.7,0 1.2,-0.2 1.5,-0.6 z" class="st0" style="fill:#004d9d"/><path id="path62" d="m 87.4,97.4 c -0.6,-0.5 -0.8,-1.1 -0.8,-2 V 91 h 1.5 v 4.2 c 0,0.5 0.1,0.9 0.4,1.2 0.3,0.3 0.7,0.4 1.3,0.4 0.5,0 1,-0.1 1.2,-0.4 0.3,-0.3 0.4,-0.7 0.4,-1.2 V 91 h 1.5 v 4.3 c 0,0.9 -0.3,1.5 -0.8,2 -0.6,0.5 -1.3,0.7 -2.3,0.7 -1,0 -1.8,-0.1 -2.4,-0.6 z" class="st0" style="fill:#004d9d"/><path id="path64" d="m 94.4,91 h 5.1 v 1.1 h -3.6 v 1.8 h 3.2 V 95 h -3.2 v 1.8 h 3.6 V 98 h -5.1 z" class="st0" style="fill:#004d9d"/><path id="path66" d="m 107.9,97.3 c -0.3,0.3 -0.6,0.4 -1,0.6 -0.4,0.1 -0.8,0.2 -1.3,0.2 -0.8,0 -1.4,-0.2 -1.9,-0.5 -0.5,-0.3 -0.7,-0.8 -0.7,-1.4 0,-0.5 0.1,-0.9 0.4,-1.2 0.3,-0.3 0.7,-0.6 1.2,-0.9 -0.3,-0.3 -0.5,-0.6 -0.7,-0.8 -0.1,-0.2 -0.2,-0.5 -0.2,-0.8 0,-0.5 0.2,-0.9 0.5,-1.2 0.4,-0.3 0.8,-0.5 1.4,-0.5 0.6,0 1.1,0.1 1.4,0.4 0.4,0.3 0.5,0.7 0.5,1.2 0,0.4 -0.1,0.7 -0.3,0.9 -0.2,0.3 -0.4,0.5 -0.8,0.8 l 1.5,1.5 c 0.1,-0.2 0.2,-0.4 0.2,-0.7 v -0.2 h 1.1 v 0.2 c 0,0.3 0,0.5 -0.1,0.8 -0.1,0.3 -0.2,0.5 -0.3,0.7 l 0.7,0.7 -0.9,0.8 z m -1.5,-0.4 c 0.2,-0.1 0.4,-0.2 0.6,-0.4 L 105.4,95 c -0.4,0.2 -0.6,0.3 -0.8,0.5 -0.2,0.2 -0.3,0.4 -0.3,0.7 0,0.3 0.1,0.5 0.3,0.7 0.2,0.2 0.5,0.2 0.9,0.2 0.4,0 0.6,-0.1 0.9,-0.2 z m -0.2,-3.7 c 0.1,-0.1 0.2,-0.3 0.2,-0.6 0,-0.2 -0.1,-0.4 -0.2,-0.5 -0.1,-0.1 -0.3,-0.2 -0.6,-0.2 -0.3,0 -0.5,0.1 -0.6,0.2 -0.1,0.1 -0.2,0.3 -0.2,0.5 0,0.2 0.1,0.4 0.2,0.5 0.1,0.1 0.3,0.3 0.6,0.5 0.3,-0.1 0.5,-0.2 0.6,-0.4 z" class="st1" style="fill:#e30613"/><path id="path68" d="m 113.5,91 h 1.5 v 5.8 h 3.5 V 98 h -5 z" class="st0" style="fill:#004d9d"/><path id="path70" d="m 119.5,91 h 1.5 v 7 h -1.5 z" class="st0" style="fill:#004d9d"/><path id="path72" d="m 122.5,91 h 3.6 c 0.7,0 1.2,0.2 1.6,0.5 0.4,0.3 0.5,0.8 0.5,1.4 0,0.4 -0.1,0.7 -0.2,0.9 -0.1,0.3 -0.3,0.5 -0.6,0.6 0.4,0.1 0.6,0.3 0.8,0.5 0.2,0.2 0.3,0.6 0.3,1 0,0.7 -0.2,1.2 -0.6,1.5 -0.4,0.3 -0.9,0.5 -1.7,0.5 h -3.7 z m 3.3,2.9 c 0.7,0 1,-0.3 1,-0.9 0,-0.3 -0.1,-0.5 -0.2,-0.7 -0.2,-0.1 -0.5,-0.2 -0.9,-0.2 H 124 v 1.8 z m 0,3 c 0.4,0 0.7,-0.1 0.8,-0.2 0.1,-0.1 0.3,-0.4 0.3,-0.8 0,-0.3 -0.1,-0.5 -0.3,-0.7 -0.2,-0.1 -0.5,-0.2 -0.9,-0.2 H 124 v 1.9 z" class="st0" style="fill:#004d9d"/><path id="path74" d="m 129.7,91 h 5.1 v 1.1 h -3.6 v 1.8 h 3.2 V 95 h -3.2 v 1.8 h 3.6 V 98 h -5.1 z" class="st0" style="fill:#004d9d"/><path id="path76" d="m 136,91 h 3.4 c 0.8,0 1.4,0.2 1.8,0.6 0.4,0.4 0.6,1 0.6,1.7 0,0.5 -0.1,0.9 -0.4,1.2 -0.2,0.3 -0.6,0.6 -1,0.7 0.1,0.1 0.2,0.2 0.3,0.3 0.1,0.1 0.1,0.3 0.2,0.4 l 0.9,1.9 h -1.5 l -0.8,-1.9 c -0.1,-0.2 -0.2,-0.3 -0.2,-0.3 -0.1,-0.1 -0.2,-0.1 -0.4,-0.1 h -1.2 V 98 H 136 Z m 3.1,3.5 c 0.4,0 0.7,-0.1 0.9,-0.3 0.2,-0.2 0.3,-0.5 0.3,-0.8 0,-0.3 -0.1,-0.7 -0.3,-0.9 -0.2,-0.2 -0.5,-0.3 -0.9,-0.3 h -1.6 v 2.2 h 1.6 z" class="st0" style="fill:#004d9d"/><path id="path78" d="m 144.4,92.2 h -2.2 V 91 h 5.8 v 1.1 h -2.2 V 98 h -1.5 v -5.8 z" class="st0" style="fill:#004d9d"/><path id="path80" d="m 149.1,91 h 5.1 v 1.1 h -3.6 v 1.8 h 3.2 V 95 h -3.2 v 1.8 h 3.6 V 98 h -5.1 z m 2.7,-2.5 h 1.3 l -1,2 H 151 Z" class="st0" style="fill:#004d9d"/><path id="path82" d="m 155.4,97.7 v -1.3 c 0.3,0.1 0.7,0.2 1.1,0.3 0.4,0.1 0.7,0.1 1.1,0.1 0.6,0 0.9,0 1.2,-0.2 0.2,-0.1 0.3,-0.3 0.3,-0.6 0,-0.2 -0.1,-0.4 -0.2,-0.5 -0.1,-0.1 -0.3,-0.2 -0.5,-0.3 -0.2,-0.1 -0.6,-0.2 -1.1,-0.3 -0.7,-0.2 -1.3,-0.5 -1.6,-0.8 -0.3,-0.3 -0.5,-0.7 -0.5,-1.3 0,-0.6 0.2,-1.1 0.7,-1.5 0.5,-0.3 1.2,-0.5 2.1,-0.5 0.4,0 0.8,0 1.2,0.1 0.4,0.1 0.7,0.1 0.9,0.2 v 1.3 c -0.6,-0.2 -1.2,-0.3 -1.9,-0.3 -0.5,0 -0.9,0.1 -1.1,0.2 -0.2,0.1 -0.4,0.3 -0.4,0.6 0,0.2 0,0.3 0.1,0.4 0.1,0.1 0.2,0.2 0.5,0.3 0.2,0.1 0.6,0.2 1,0.3 0.8,0.2 1.4,0.5 1.7,0.8 0.3,0.3 0.5,0.8 0.5,1.3 0,0.6 -0.2,1.1 -0.7,1.5 -0.5,0.4 -1.2,0.5 -2.2,0.5 -0.8,0.1 -1.6,0 -2.2,-0.3 z" class="st0" style="fill:#004d9d"/></g><rect id="rect86" width="82.991" height="82.991" x="1481.341" y="389.946" class="st1" style="fill:#e30613;stroke-width:11.36869526"/><g id="g98" transform="matrix(11.368696,0,0,11.368696,-261.48001,-321.7341)"><g id="g96"><path id="path88" d="m 52.5,62.1 0.8,6.7 c -3.6,1.1 -7.9,1.7 -13.1,1.7 -6.3,0 -10.8,-1.6 -13.3,-4.7 C 24.3,62.6 23,57.2 23,49.4 23,41.6 24.3,36.2 26.9,33 c 2.6,-3.2 7,-4.7 13.3,-4.7 4.6,0 8.7,0.5 12.3,1.4 l -0.8,6.7 c -3.2,-0.2 -7,-0.3 -11.5,-0.3 -3,0 -5,0.9 -6.1,2.8 -1.1,1.9 -1.6,5.4 -1.6,10.5 0,5.1 0.5,8.6 1.6,10.5 1.1,1.9 3.1,2.8 6.1,2.8 5.5,0 9.6,-0.2 12.3,-0.6 z" class="st0" style="fill:#004d9d"/><path id="path90" d="m 93.6,29 v 37.5 c 0,2.2 -1.1,3.3 -3.2,3.3 h -5.6 c -0.9,0 -1.6,-0.2 -2.1,-0.6 -0.5,-0.4 -1,-1.1 -1.5,-2 L 70.4,45.4 c -1.3,-2.9 -2.2,-5 -2.5,-6.3 h -0.7 c 0.3,2 0.4,4.1 0.4,6.5 V 69.8 H 59 V 32.2 c 0,-2.2 1.1,-3.3 3.3,-3.3 h 5.5 c 0.9,0 1.6,0.2 2.1,0.6 0.5,0.4 1,1.1 1.5,2 l 10.4,21.1 c 1,2 2,4.2 3,6.6 h 0.6 C 85.2,56.1 85,53.8 85,52.3 V 29 Z" class="st0" style="fill:#004d9d"/><path id="path92" d="m 110.9,69.8 h -9 V 29 h 9 z" class="st0" style="fill:#004d9d"/><path id="path94" d="m 145.2,69.9 h -16.8 c -3.2,0 -5.5,-0.8 -7.1,-2.4 -1.5,-1.6 -2.3,-3.7 -2.3,-6.3 V 29 h 9 v 30.4 c 0,1.1 0.2,1.8 0.7,2.3 0.5,0.5 1.3,0.7 2.5,0.7 h 14 z" class="st0" style="fill:#004d9d"/></g></g><rect id="rect100" width="184.1" height="123.1" x="2910.826" y="-230.117" class="st2" style="fill:none"/></svg>